<svg width="12px" height="12px" viewBox="0 0 12 12" version="1.1" xmlns="http://www.w3.org/2000/svg">
    <g id="App" stroke="none" stroke-width="1" fill="none" fill-rule="evenodd" fill-opacity="0.699999988">
        <g id="Meeting-invitation" transform="translate(-24.000000, -196.000000)" fill="#000000">
            <g id="invitation" transform="translate(8.000000, 8.000000)">
                <g id="organizer" transform="translate(16.000000, 172.000000)">
                    <g id="icon-account" transform="translate(0.000000, 16.000000)">
                        <path d="M6,0 C7.65685425,0 9,1.34314575 9,3 C9,4.65685425 7.65685425,6 6,6 C4.34314575,6 3,4.65685425 3,3 C3,1.34314575 4.34314575,0 6,0 L6,0 Z M6,7.5 C9.315,7.5 12,8.8425 12,10.5 L12,12 L0,12 L0,10.5 C0,8.8425 2.685,7.5 6,7.5 L6,7.5 Z" id="Shape"></path>
                    </g>
                </g>
            </g>
        </g>
    </g>
</svg>