<svg width="21px" height="21px" viewBox="0 0 21 21" version="1.1" xmlns="http://www.w3.org/2000/svg" xmlns:xlink="http://www.w3.org/1999/xlink">
    <defs>
        <path d="M7.5,15 C11.6421356,15 15,11.6421356 15,7.5 C15,3.35786438 11.6421356,0 7.5,0 C3.35786438,0 0,3.35786438 0,7.5 C0,11.6421356 3.35786438,15 7.5,15 Z" id="path-1"></path>
        <mask id="mask-2" maskContentUnits="userSpaceOnUse" maskUnits="objectBoundingBox" x="0" y="0" width="15" height="15" fill="white">
            <use xlink:href="#path-1"></use>
        </mask>
        <polygon id="path-3" points="13 15.5 13 14.5 11.5 13 13.5 11 15 12.5 16 12.5 21 17.5 18 20.5"></polygon>
        <mask id="mask-4" maskContentUnits="userSpaceOnUse" maskUnits="objectBoundingBox" x="0" y="0" width="9.5" height="9.5" fill="white">
            <use xlink:href="#path-3"></use>
        </mask>
        <circle id="path-5" cx="7.5" cy="7.5" r="4.5"></circle>
        <mask id="mask-6" maskContentUnits="userSpaceOnUse" maskUnits="objectBoundingBox" x="0" y="0" width="9" height="9" fill="white">
            <use xlink:href="#path-5"></use>
        </mask>
    </defs>
    <g id="Symbols" stroke="none" stroke-width="1" fill="none" fill-rule="evenodd">
        <g id="icon-search-color-outline-bigger" transform="translate(-14.000000, -14.000000)" stroke="#0001F7" stroke-width="2">
            <g id="icon-search" transform="translate(14.000000, 14.000000)">
                <use id="Oval-39" mask="url(#mask-2)" xlink:href="#path-1"></use>
                <use id="Rectangle-89" mask="url(#mask-4)" xlink:href="#path-3"></use>
                <use id="Oval-39" mask="url(#mask-6)" xlink:href="#path-5"></use>
            </g>
        </g>
    </g>
</svg>