<?xml version="1.0" encoding="UTF-8" standalone="no"?>
<svg width="12px" height="16px" viewBox="0 0 12 16" version="1.1" xmlns="http://www.w3.org/2000/svg" xmlns:xlink="http://www.w3.org/1999/xlink">
    <!-- Generator: sketchtool 3.8.3 (29802) - http://www.bohemiancoding.com/sketch -->
    <title>B8A77DAD-D0F2-4740-8B74-C8DF09B2981A</title>
    <desc>Created with sketchtool.</desc>
    <defs>
        <rect id="path-1" x="0" y="0" width="12" height="16" rx="2"></rect>
        <mask id="mask-2" maskContentUnits="userSpaceOnUse" maskUnits="objectBoundingBox" x="0" y="0" width="12" height="16" fill="white">
            <use xlink:href="#path-1"></use>
        </mask>
    </defs>
    <g id="Symbols" stroke="none" stroke-width="1" fill="none" fill-rule="evenodd">
        <g id="icon-subject-color" transform="translate(-10.000000, -8.000000)">
            <g transform="translate(10.000000, 8.000000)">
                <use id="Combined-Shape" stroke="#0001F7" mask="url(#mask-2)" stroke-width="2" xlink:href="#path-1"></use>
                <path d="M5.88,12.192 C7.704,12.192 8.78133333,11.0933333 8.78133333,9.80266667 C8.78133333,8.66133333 8.152,8.05333333 7.192,7.65866667 L6.15733333,7.22133333 C5.48533333,6.95466667 4.92,6.752 4.92,6.18666667 C4.92,5.664 5.368,5.35466667 6.06133333,5.35466667 C6.712,5.35466667 7.23466667,5.58933333 7.736,6.00533333 L8.536,5.01333333 C7.896,4.36266667 6.97866667,4 6.06133333,4 C4.46133333,4 3.33066667,4.992 3.33066667,6.28266667 C3.33066667,7.43466667 4.13066667,8.07466667 4.93066667,8.40533333 L5.98666667,8.85333333 C6.69066667,9.152 7.17066667,9.33333333 7.17066667,9.92 C7.17066667,10.4746667 6.73333333,10.8266667 5.912,10.8266667 C5.21866667,10.8266667 4.472,10.4746667 3.90666667,9.952 L3,11.04 C3.768,11.776 4.824,12.192 5.88,12.192 L5.88,12.192 Z" id="S" fill="#0001F7"></path>
            </g>
        </g>
    </g>
</svg>