<?xml version="1.0" encoding="UTF-8" standalone="no"?>
<svg width="16px" height="24px" viewBox="0 0 16 24" version="1.1" xmlns="http://www.w3.org/2000/svg" xmlns:xlink="http://www.w3.org/1999/xlink">
    <!-- Generator: Sketch 3.7.2 (28276) - http://www.bohemiancoding.com/sketch -->
    <title>icon-subject</title>
    <desc>Created with Sketch.</desc>
    <defs>
        <rect id="path-1" x="0" y="0" width="16" height="24" rx="2"></rect>
        <mask id="mask-2" maskContentUnits="userSpaceOnUse" maskUnits="objectBoundingBox" x="0" y="0" width="16" height="24" fill="white">
            <use xlink:href="#path-1"></use>
        </mask>
    </defs>
    <g id="Symbols" stroke="none" stroke-width="1" fill="none" fill-rule="evenodd">
        <g id="conversation-top" transform="translate(-232.000000, -40.000000)">
            <g id="icon-subject">
                <g transform="translate(216.000000, 28.000000)">
                    <g transform="translate(16.000000, 12.000000)">
                        <use id="Combined-Shape" stroke="#000000" mask="url(#mask-2)" stroke-width="2" xlink:href="#path-1"></use>
                        <path d="M7.992,18.224 C10.728,18.224 12.344,16.576 12.344,14.64 C12.344,12.928 11.4,12.016 9.96,11.424 L8.408,10.768 C7.4,10.368 6.552,10.064 6.552,9.216 C6.552,8.432 7.224,7.968 8.264,7.968 C9.24,7.968 10.024,8.32 10.776,8.944 L11.976,7.456 C11.016,6.48 9.64,5.936 8.264,5.936 C5.864,5.936 4.168,7.424 4.168,9.36 C4.168,11.088 5.368,12.048 6.568,12.544 L8.152,13.216 C9.208,13.664 9.928,13.936 9.928,14.816 C9.928,15.648 9.272,16.176 8.04,16.176 C7,16.176 5.88,15.648 5.032,14.864 L3.672,16.496 C4.824,17.6 6.408,18.224 7.992,18.224 L7.992,18.224 Z" id="S" fill="#000000"></path>
                    </g>
                </g>
            </g>
        </g>
    </g>
</svg>