<svg width="19px" height="12px" viewBox="0 0 19 12" version="1.1" xmlns="http://www.w3.org/2000/svg">
    <g id="App" stroke="none" stroke-width="1" fill="none" fill-rule="evenodd" fill-opacity="0.7">
        <g id="Meeting-invitation" transform="translate(-158.000000, -196.000000)" fill="#000000">
            <g id="invitation" transform="translate(8.000000, 8.000000)">
                <g id="organizer" transform="translate(150.000000, 172.000000)">
                    <g id="icon-account-multiple" transform="translate(0.000000, 16.000000)">
                        <path d="M12.8571429,6.85714286 C12.6085714,6.85714286 12.3257143,6.85714286 12.0257143,6.9 C13.02,7.62 13.7142857,8.57142857 13.7142857,9.85714286 L13.7142857,12 L18.8571429,12 L18.8571429,9.85714286 C18.8571429,7.86 14.8542857,6.85714286 12.8571429,6.85714286 L12.8571429,6.85714286 Z M6,6.85714286 C4.00285714,6.85714286 0,7.86 0,9.85714286 L0,12 L12,12 L12,9.85714286 C12,7.86 7.99714286,6.85714286 6,6.85714286 L6,6.85714286 Z M6,5.14285714 C7.42016079,5.14285714 8.57142857,3.99158936 8.57142857,2.57142857 C8.57142857,1.15126779 7.42016079,0 6,0 C4.57983921,0 3.42857143,1.15126779 3.42857143,2.57142857 C3.42857143,3.99158936 4.57983921,5.14285714 6,5.14285714 L6,5.14285714 Z M12.8571429,5.14285714 C14.2773036,5.14285714 15.4285714,3.99158936 15.4285714,2.57142857 C15.4285714,1.15126779 14.2773036,0 12.8571429,0 C11.4369821,0 10.2857143,1.15126779 10.2857143,2.57142857 C10.2857143,3.99158936 11.4369821,5.14285714 12.8571429,5.14285714 L12.8571429,5.14285714 Z" id="Shape"></path>
                    </g>
                </g>
            </g>
        </g>
    </g>
</svg>