<svg width="12px" height="12px" viewBox="0 0 12 12" version="1.1" xmlns="http://www.w3.org/2000/svg">
    <path fill="#0001F7" d="M6,10.8 C3.354,10.8 1.2,8.646 1.2,6 C1.2,3.354 3.354,1.2 6,1.2 C8.646,1.2 10.8,3.354 10.8,6 C10.8,8.646 8.646,10.8 6,10.8 L6,10.8 Z M6,2.66453526e-16 C2.6862915,-1.0658141e-15 2.66453526e-16,2.6862915 0,6 C-7.99360578e-16,7.59129894 0.632141042,9.11742242 1.75735931,10.2426407 C2.88257758,11.367859 4.40870106,12 6,12 C7.59129894,12 9.11742242,11.367859 10.2426407,10.2426407 C11.367859,9.11742242 12,7.59129894 12,6 C12,4.40870106 11.367859,2.88257758 10.2426407,1.75735931 C9.11742242,0.632141042 7.59129894,1.33226763e-16 6,0 L6,2.66453526e-16 Z M6.6,3 L5.4,3 L5.4,5.4 L3,5.4 L3,6.6 L5.4,6.6 L5.4,9 L6.6,9 L6.6,6.6 L9,6.6 L9,5.4 L6.6,5.4 L6.6,3 L6.6,3 Z"></path>
</svg>