<svg width="29px" height="21px" viewBox="0 0 29 21" version="1.1" xmlns="http://www.w3.org/2000/svg">
    <g fill="none">
        <g transform="translate(0, -1)" fill="#FFFFFF">
            <path d="M22.9999991,0.99999994 L16.9999995,0.99999994 L16.9999995,2.99999982 L22.9999991,2.99999982 L22.9999991,0.99999994 Z M18.9999993,13.9999992 L20.9999992,13.9999992 L20.9999992,7.99999952 L18.9999993,7.99999952 L18.9999993,13.9999992 Z M27.0299976,7.38999942 L28.4499976,5.96999943 C28.0199973,5.4599997 27.549998,4.97999924 27.0399979,4.55999967 L25.6199978,5.97999965 C24.0699986,4.73999949 22.119999,3.99999976 19.9999993,3.99999976 C15.0299993,3.99999976 10.9999998,8.0300002 10.9999998,12.9999992 C10.9999998,17.9699982 15.0199996,21.9999987 19.9999993,21.9999987 C24.9799985,21.9999987 28.9999987,17.9699982 28.9999987,12.9999992 C28.9999987,10.8799994 28.259999,8.92999976 27.0299995,7.38999942 L27.0299976,7.38999942 Z M19.9999993,19.9999988 C16.1299996,19.9999988 12.9999997,16.8699979 12.9999997,12.9999992 C12.9999997,9.13000051 16.1299996,5.99999964 19.9999993,5.99999964 C23.8699988,5.99999964 26.9999989,9.12999956 26.9999989,12.9999992 C26.9999989,16.8699979 23.8699988,19.9999988 19.9999993,19.9999988 Z"></path>
            <rect x="2" y="18" width="7" height="2"></rect>
            <rect x="2" y="6" width="7" height="2"></rect>
            <rect x="0" y="12" width="7" height="2"></rect>
        </g>
    </g>
</svg>