<svg width="18px" height="18px" viewBox="0 0 18 18" xmlns="http://www.w3.org/2000/svg">
    <path fill="#FFFFFF" d="M6.5,4.4408921e-16 C10.0898509,1.77635684e-15 13,2.91014913 13,6.5 C13,8.11 12.41,9.59 11.44,10.73 L11.71,11 L12.5,11 L17.5,16 L16,17.5 L11,12.5 L11,11.71 L10.73,11.44 C9.59,12.41 8.11,13 6.5,13 C2.91014913,13 4.4408921e-16,10.0898509 0,6.5 C-2.22044605e-15,2.91014913 2.91014913,4.4408921e-16 6.5,0 L6.5,4.4408921e-16 Z M6.5,2 C4,2 2,4 2,6.5 C2,9 4,11 6.5,11 C9,11 11,9 11,6.5 C11,4 9,2 6.5,2 L6.5,2 Z"></path>
</svg>