<svg width="22px" height="12px" viewBox="0 0 22 12" xmlns="http://www.w3.org/2000/svg">
    <path fill="#5634ff" d="M6,12 C2.6862915,12 -1.77635684e-15,9.3137085 -1.77635684e-15,6 C-2.2608178e-15,2.6862915 2.6862915,-8.8817842e-16 6,-8.8817842e-16 L17.4545455,-8.8817842e-16 C19.8645153,-1.85710033e-15 21.8181818,1.95366655 21.8181818,4.36363636 C21.8181818,6.77360618 19.8645153,8.72727273 17.4545455,8.72727273 L8.18181818,8.72727273 C6.67558705,8.72727273 5.45454545,7.50623114 5.45454545,6 C5.45454545,4.49376886 6.67558705,3.27272727 8.18181818,3.27272727 L16.3636364,3.27272727 L16.3636364,4.90909091 L8.18181818,4.90909091 C7.57932573,4.90909091 7.09090909,5.39750755 7.09090909,6 C7.09090909,6.60249245 7.57932573,7.09090909 8.18181818,7.09090909 L17.4545455,7.09090909 C18.1778632,7.09090909 18.8715556,6.80357225 19.3830185,6.2921094 C19.8944813,5.78064655 20.1818182,5.08695406 20.1818182,4.36363636 C20.1818182,3.64031866 19.8944813,2.94662617 19.3830185,2.43516332 C18.8715556,1.92370047 18.1778632,1.63636364 17.4545455,1.63636364 L6,1.63636364 C3.59003018,1.63636364 1.63636364,3.59003018 1.63636364,6 C1.63636364,8.40996982 3.59003018,10.3636364 6,10.3636364 L16.3636364,10.3636364 L16.3636364,12 L6,12 L6,12 Z"></path>
</svg>