<svg width="22px" height="12px" viewBox="0 0 22 12" version="1.1" xmlns="http://www.w3.org/2000/svg">
    <path fill="#7a4df9" d="M6.05,12 C2.70867726,12 -1.77635684e-15,9.3137085 -1.77635684e-15,6 C-2.26485497e-15,2.6862915 2.70867726,-8.8817842e-16 6.05,-8.8817842e-16 L17.6,-8.8817842e-16 C20.0300529,-1.85710033e-15 22,1.95366655 22,4.36363636 C22,6.77360618 20.0300529,8.72727273 17.6,8.72727273 L8.25,8.72727273 C6.73121694,8.72727273 5.5,7.50623114 5.5,6 C5.5,4.49376886 6.73121694,3.27272727 8.25,3.27272727 L16.5,3.27272727 L16.5,4.90909091 L8.25,4.90909091 C7.64248678,4.90909091 7.15,5.39750755 7.15,6 C7.15,6.60249245 7.64248678,7.09090909 8.25,7.09090909 L17.6,7.09090909 C18.3293453,7.09090909 19.0288186,6.80357225 19.5445436,6.2921094 C20.0602687,5.78064655 20.35,5.08695406 20.35,4.36363636 C20.35,3.64031866 20.0602687,2.94662617 19.5445436,2.43516332 C19.0288186,1.92370047 18.3293453,1.63636364 17.6,1.63636364 L6.05,1.63636364 C3.6199471,1.63636364 1.65,3.59003018 1.65,6 C1.65,8.40996982 3.6199471,10.3636364 6.05,10.3636364 L16.5,10.3636364 L16.5,12 L6.05,12 L6.05,12 Z"></path>
</svg>