<svg xmlns="http://www.w3.org/2000/svg" viewBox="0 0 34.652 34.652" width="48px" height="48px">
    <path d="M 15.529,32.855 C 6.966,32.855 0,25.889 0,17.326 0,8.763 6.966,1.797 15.529,1.797 c 8.563,0 15.529,6.967 15.529,15.529 0,0.49 -0.397,0.888 -0.888,0.888 -0.49,0 -0.888,-0.397 -0.888,-0.888 0,-7.584 -6.17,-13.755 -13.754,-13.755 -7.585,0 -13.755,6.171 -13.755,13.755 0,7.584 6.17,13.754 13.755,13.754 4.852,0 9.397,-2.601 11.862,-6.787 0.249,-0.423 0.793,-0.562 1.215,-0.314 0.422,0.248 0.562,0.792 0.315,1.215 -2.781,4.725 -7.913,7.661 -13.391,7.661 z" style="fill:#7a4df9" />
    <path d="m 30.17,18.214 c -0.153,0 -0.309,-0.04 -0.45,-0.123 l -5.561,-3.284 c -0.422,-0.249 -0.562,-0.793 -0.313,-1.215 0.25,-0.422 0.794,-0.562 1.216,-0.312 l 4.852,2.865 3.123,-4.473 c 0.281,-0.402 0.834,-0.5 1.235,-0.22 0.402,0.28 0.5,0.833 0.22,1.235 l -3.594,5.146 c -0.172,0.247 -0.447,0.381 -0.728,0.381 z" style="fill:#7a4df9" />
</svg>