<svg width="128px" height="128px" viewBox="0 0 128 128" version="1.1" xmlns="http://www.w3.org/2000/svg" xmlns:xlink="http://www.w3.org/1999/xlink">
    <defs>
        <path d="M64,128 C99.346224,128 128,99.346224 128,64 C128,28.653776 99.346224,0 64,0 C28.653776,0 0,28.653776 0,64 C0,99.346224 28.653776,128 64,128 Z" id="path-1"></path>
    </defs>
    <g id="Page-1" stroke="none" stroke-width="1" fill="none" fill-rule="evenodd">
        <g id="login-email-inv" transform="translate(-116.000000, -72.000000)">
            <g id="Group" transform="translate(116.000000, 72.000000)">
                <mask id="mask-2" fill="white">
                    <use xlink:href="#path-1"></use>
                </mask>
                <use id="Mask" fill="#7A4DF9" xlink:href="#path-1"></use>
                <polygon id="Rectangle" fill="#FFFFFF" mask="url(#mask-2)" points="84.0126202 89.438101 67.2872596 -0.456730769 77.3810096 -2.23076923 95.0378606 97.7692308 59.0769231 104.195312 59.0769231 129.230769 47.0811298 129.230769 47.0811298 95.6887019"></polygon>
                <path d="M85.8113033,99.4245482 L85.8221679,99.4861645 L95.4643953,97.7859797 L88.9579394,60.8860346 C90.7585316,61.4435028 92.6863213,61.7415663 94.6985743,61.7415663 C105.091138,61.7415663 113.230769,53.7911659 113.230769,43.2149452 C113.230769,32.6387245 105.091138,24.6883241 94.6985743,24.6883241 C84.30601,24.6883241 76.1663793,32.6387245 76.1663793,43.2149452 C76.1663793,44.8501676 76.3609589,46.4226192 76.7283606,47.91262 L84.0192734,89.2614416 L57.4374404,93.9485359 L59.2294704,104.111643 L85.8113033,99.4245482 Z M94.6985743,52.6970741 C89.611305,52.6970741 86.0502166,48.6854041 86.0502166,43.2149452 C86.0502166,37.8174256 89.4659545,33.8057557 94.6985743,33.8057557 C99.8585187,33.8057557 103.274257,37.8174256 103.274257,43.2149452 C103.274257,48.6854041 99.8585187,52.6970741 94.6985743,52.6970741 Z M42.7922783,61.6686268 C53.1848425,61.6686268 61.3244732,53.7182264 61.3244732,43.1420057 C61.3244732,32.565785 53.1848425,24.6153846 42.7922783,24.6153846 C32.399714,24.6153846 24.2600833,32.565785 24.2600833,43.1420057 C24.2600833,53.7182264 32.399714,61.6686268 42.7922783,61.6686268 Z M42.7922783,52.6241346 C37.705009,52.6241346 34.1439206,48.6124647 34.1439206,43.1420057 C34.1439206,37.7444862 37.5596585,33.7328163 42.7922783,33.7328163 C47.9522227,33.7328163 51.3679606,37.7444862 51.3679606,43.1420057 C51.3679606,48.6124647 47.9522227,52.6241346 42.7922783,52.6241346 Z" id="Combined-Shape" fill="#FFFFFF" mask="url(#mask-2)"></path>
            </g>
        </g>
    </g>
</svg>