<svg xmlns="http://www.w3.org/2000/svg" width="128px" height="128px" viewBox="0 0 128 128" version="1.1">
   <g transform="matrix(0.25,0,0,0.2434172,0,2.1720313)">
        <path fill="#7A4DF9" d="M256,512 C397.384896,512 512,397.384896 512,256 C512,114.615104 397.384896,0 256,0 C114.615104,0 0,114.615104 0,256 C0,397.384896 114.615104,512 256,512 Z"/>
        <path fill="#FFFFFF" d="m 328.18594,359.42196 c 5.44804,-0.92207 9.04579,-6.07015 8.03603,-11.49735 l -65.07293,-349.7515331 40.375,-7.0961538 65.41249,370.4652469 c 2.88012,16.31159 -8.01162,31.89828 -24.31724,34.81203 l -104.46711,18.66788 c -5.43696,0.97156 -9.84449,6.24025 -9.84449,11.75033 l 0,90.15067 -47.98317,0 0,-104.1627 c 0,-16.57162 13.2397,-32.24637 29.58381,-35.01259 l 108.27761,-18.32583 z" />
        <path fill="#FFFFFF" d="m 452.92308,172.85978 c 0,-42.30488 -32.55853,-74.106484 -74.12878,-74.106484 -41.57026,0 -74.12878,31.801604 -74.12878,74.106484 0,42.30488 32.55852,74.10648 74.12878,74.10648 41.57025,0 74.12878,-31.8016 74.12878,-74.10648 z m -108.72221,0 c 0,-21.59008 13.66295,-37.63676 34.59343,-37.63676 20.63977,0 34.30273,16.04668 34.30273,37.63676 0,21.88184 -13.66296,37.92852 -34.30273,37.92852 -20.34908,0 -34.59343,-16.04668 -34.59343,-37.92852 z m -98.90298,-0.29176 c 0,-42.30488 -32.55852,-74.106481 -74.12878,-74.106481 -41.57025,0 -74.128777,31.801601 -74.128777,74.106481 0,42.30489 32.558527,74.10649 74.128777,74.10649 41.57026,0 74.12878,-31.8016 74.12878,-74.10649 z m -108.72221,0 c 0,-21.59008 13.66295,-37.63676 34.59343,-37.63676 20.63978,0 34.30273,16.04668 34.30273,37.63676 0,21.88184 -13.66295,37.92852 -34.30273,37.92852 -20.34907,0 -34.59343,-16.04668 -34.59343,-37.92852 z"/>
    </g>
</svg>