<svg xmlns="http://www.w3.org/2000/svg">
  <g style="fill:none;fill-rule:evenodd;stroke:none;stroke-width:1">
    <polygon points="24,0 24,24 0,24 0,0" style="stroke:#000;stroke-width:0;stroke-opacity:0.00784314" />
    <path d="m 15.5,14 -0.79,0 -0.28,-0.27 c 0.98,-1.14 1.57,-2.62 1.57,-4.23 0,-3.59 -2.91,-6.5 -6.5,-6.5 -3.59,0 -6.5,2.91 -6.5,6.5 0,3.59 2.91,6.5 6.5,6.5 1.61,0 3.09,-0.59 4.23,-1.57 l 0.27,0.28 0,0.79 5,5 1.49,-1.49 -5,-5 z m -6,0 c -2.49,0 -4.5,-2.01 -4.5,-4.5 0,-2.49 2.01,-4.5 4.5,-4.5 2.49,0 4.5,2.01 4.5,4.5 0,2.49 -2.01,4.5 -4.5,4.5 z" fill="#7a4df9" />
    <g transform="translate(6.5,6.5)" fill="#7a4df9">
      <rect x="2" y="0" width="2" height="6" />
      <rect x="0" y="2" width="6" height="2" />
    </g>
  </g>
</svg>
