<svg xmlns="http://www.w3.org/2000/svg">
  <g style="fill:none;fill-rule:evenodd;stroke:none;stroke-width:1">
    <polygon points="23.999999,0 23.999999,23.999999 0,23.999999 0,0" style="stroke:#000000;stroke-width:0;stroke-opacity:0.00784314" />
    <path d="m 15.499999,13.999999 -0.79,0 -0.28,-0.27 c 0.98,-1.14 1.57,-2.62 1.57,-4.2299996 0,-3.5899999 -2.91,-6.4999996 -6.4999996,-6.4999996 -3.5899999,0 -6.4999996,2.9099997 -6.4999996,6.4999996 0,3.5899996 2.9099997,6.4999996 6.4999996,6.4999996 1.6099996,0 3.0899996,-0.59 4.2299996,-1.57 l 0.27,0.28 0,0.79 5,4.989999 1.489999,-1.489999 -4.989999,-5 z m -5.9999996,0 c -2.4899996,0 -4.4999997,-2.01 -4.4999997,-4.4999996 0,-2.4899996 2.0100001,-4.4999997 4.4999997,-4.4999997 2.4899996,0 4.4999996,2.0100001 4.4999996,4.4999997 0,2.4899996 -2.01,4.4999996 -4.4999996,4.4999996 z" style="fill:#7a4df9" />
    <g transform="translate(6.5,6.5)" style="fill:#7a4df9">
      <rect x="2" y="0" width="2" height="6" />
      <rect x="0" y="2" width="6" height="2" />
    </g>
  </g>
</svg>
