<svg version="1.0" xmlns="http://www.w3.org/2000/svg" width="30.000000pt" height="54.000000pt" viewBox="0 0 30.000000 54.000000" preserveAspectRatio="xMidYMid meet">
<g transform="translate(0.000000,54.000000) scale(0.100000,-0.100000)" fill="#5634ff" stroke="none">
<path d="M71 469 c-54 -57 -62 -72 -57 -93 10 -39 39 -32 77 19 19 24 41 44 49 44 8 0 30 -20 49 -44 38 -51 67 -58 77 -19 5 21 -3 36 -57 93 -35 38 -66 69 -69 69 -3 0 -34 -31 -69 -69z"/>
<path d="M14 143 c-6 -23 1 -34 54 -85 33 -32 66 -58 74 -58 7 0 40 27 72 59 50 50 58 63 52 85 -10 39 -39 32 -77 -19 -19 -24 -41 -44 -49 -44 -8 0 -30 20 -49 44 -38 52 -67 58 -77 18z"/>
</g>
</svg>