<svg version="1.0" xmlns="http://www.w3.org/2000/svg" width="22.000000pt" height="12.000000pt" viewBox="0 0 22.000000 12.000000" preserveAspectRatio="xMidYMid meet">
<g transform="translate(0.000000,12.000000) scale(0.100000,-0.100000)" fill="#5634ff" stroke="none">
<path d="M20 100 c-11 -11 -20 -29 -20 -40 0 -41 34 -60 107 -60 78 0 78 12 -1 15 -58 1 -86 16 -86 45 0 31 29 45 96 45 66 0 91 -12 81 -39 -5 -12 -21 -16 -67 -16 -33 0 -60 4 -60 10 0 6 23 10 51 10 31 0 48 4 44 10 -10 16 -91 12 -105 -5 -23 -27 5 -45 71 -45 48 0 60 4 73 21 15 22 11 48 -8 61 -6 4 -44 8 -83 8 -60 0 -77 -4 -93 -20z"/>
</g>
</svg>