<svg version="1.0" xmlns="http://www.w3.org/2000/svg" width="36.000000pt" height="48.000000pt" viewBox="0 0 36.000000 48.000000" preserveAspectRatio="xMidYMid meet">
<g transform="translate(0.000000,48.000000) scale(0.100000,-0.100000)" fill="#5634ff" stroke="none">
<path d="M20 460 c0 -11 -4 -20 -10 -20 -6 0 -10 -75 -10 -206 0 -165 3 -208 14 -220 11 -11 47 -14 160 -14 91 0 146 4 146 10 0 6 9 10 20 10 19 0 20 7 20 210 0 203 -1 210 -20 210 -13 0 -20 7 -20 20 0 19 -7 20 -150 20 -143 0 -150 -1 -150 -20z m295 -230 l0 -205 -145 0 -145 0 -3 195 c-1 107 0 200 3 207 3 11 37 13 147 11 l143 -3 0 -205z"/>
<path d="M110 328 c-36 -55 -25 -84 46 -118 69 -34 50 -77 -23 -51 -42 15 -61 4 -44 -27 11 -22 50 -30 104 -24 27 3 39 11 52 36 17 31 17 34 1 59 -10 14 -38 36 -62 47 -48 24 -52 31 -29 50 13 11 20 11 41 0 32 -18 51 -2 35 29 -17 31 -100 30 -121 -1z"/>
</g>
</svg>