<svg width="12px" height="18px" viewBox="0 0 12 18" version="1.1" xmlns="http://www.w3.org/2000/svg">
    <g id="App" stroke="none" stroke-width="1" fill="none" fill-rule="evenodd" fill-opacity="0.7">
        <g id="Meeting-invitation" transform="translate(-24.000000, -133.000000)" fill="#000000">
            <g id="invitation" transform="translate(8.000000, 8.000000)">
                <g id="Group" transform="translate(16.000000, 112.000000)">
                    <g id="icon-map-marker" transform="translate(0.000000, 13.000000)">
                        <path d="M6,8.14285714 C4.81653268,8.14285714 3.85714286,7.18346732 3.85714286,6 C3.85714286,5.43167895 4.08290752,4.88663485 4.48477118,4.48477118 C4.88663485,4.08290752 5.43167895,3.85714286 6,3.85714286 C7.18346732,3.85714286 8.14285714,4.81653268 8.14285714,6 C8.14285714,6.56832105 7.91709248,7.11336515 7.51522882,7.51522882 C7.11336515,7.91709248 6.56832105,8.14285714 6,8.14285714 L6,8.14285714 Z M6,7.61295788e-16 C2.6862915,-3.80647894e-16 7.61295788e-16,2.6862915 0,6 C7.61295788e-16,10.5 6,17.1428571 6,17.1428571 C6,17.1428571 12,10.5 12,6 C12,2.6862915 9.3137085,1.14194368e-15 6,0 L6,7.61295788e-16 Z" id="Shape"></path>
                    </g>
                </g>
            </g>
        </g>
    </g>
</svg>